<?xml version="1.0" encoding="UTF-8" standalone="no"?>
<svg
   xmlns:dc="http://purl.org/dc/elements/1.1/"
   xmlns:cc="http://creativecommons.org/ns#"
   xmlns:rdf="http://www.w3.org/1999/02/22-rdf-syntax-ns#"
   xmlns:svg="http://www.w3.org/2000/svg"
   xmlns="http://www.w3.org/2000/svg"
   xmlns:sodipodi="http://sodipodi.sourceforge.net/DTD/sodipodi-0.dtd"
   xmlns:inkscape="http://www.inkscape.org/namespaces/inkscape"
   inkscape:export-ydpi="2572.6528"
   inkscape:export-xdpi="2572.6528"
   inkscape:export-filename="\\home.ansatt.ntnu.no\kjetikl\Documents\My Pictures\usegalaxy_no\branding\galaxy-small\galaxy-small.png"
   sodipodi:docname="galaxy-logo.svg"
   inkscape:version="1.0 (4035a4fb49, 2020-05-01)"
   xml:space="preserve"
   enable-background="new 7.7 3 347 110.6"
   viewBox="7.7 3 66.099998 51.900002"
   y="0px"
   x="0px"
   id="Layer_1"
   version="1.1"
   width="66.099998"
   height="51.900002"><metadata
     id="metadata4902"><rdf:RDF><cc:Work
         rdf:about=""><dc:format>image/svg+xml</dc:format><dc:type
           rdf:resource="http://purl.org/dc/dcmitype/StillImage" /><dc:title></dc:title></cc:Work></rdf:RDF></metadata><defs
     id="defs4900" /><sodipodi:namedview
     inkscape:document-rotation="0"
     inkscape:current-layer="Layer_1"
     inkscape:window-maximized="1"
     inkscape:window-y="-8"
     inkscape:window-x="-8"
     inkscape:cy="49.738683"
     inkscape:cx="78.201312"
     inkscape:zoom="7.0914455"
     showgrid="false"
     id="namedview4898"
     inkscape:window-height="1017"
     inkscape:window-width="1920"
     inkscape:pageshadow="2"
     inkscape:pageopacity="0"
     guidetolerance="10"
     gridtolerance="10"
     objecttolerance="10"
     borderopacity="1"
     bordercolor="#666666"
     pagecolor="#ffffff" /><path
     style="fill:#4f4c4c;fill-opacity:1"
     id="path4857"
     d="M 55.8,17.4 H 8.8000003 C 8.2,17.4 7.7,16.9 7.7,16.3 V 4.1 C 7.7,3.5 8.2,3 8.8000003,3 H 55.8 c 0.6,0 1.1,0.5 1.1,1.1 v 12.1 c 0,0.6 -0.4,1.2 -1.1,1.2 z"
     fill="#58595B" /><path
     style="fill:#4f4c4c;fill-opacity:1"
     id="path4859"
     d="M 43.2,36.3 H 8.9000003 C 8.3000003,36.3 7.7,35.8 7.7,35.1 v -12 c 0,-0.6 0.5,-1.2 1.2000003,-1.2 H 43.2 c 0.6,0 1.2,0.5 1.2,1.2 v 12 c 0,0.7 -0.5,1.2 -1.2,1.2 z"
     fill="#58595B" /><linearGradient
     gradientTransform="matrix(0.431,0,0,-0.431,0,179.9715)"
     y2="282.5"
     x2="175.7"
     y1="282.5"
     x1="61.400002"
     gradientUnits="userSpaceOnUse"
     id="SVGID_1_"><stop
       id="stop4862"
       style="stop-color:#D0BD2B"
       offset="0.1656" /><stop
       id="stop4864"
       style="stop-color:#D0BD2B;stop-opacity:0"
       offset="1" /></linearGradient><path
     id="path4866"
     d="m 72.7,54.9 h -47 c -0.6,0 -1.2,-0.5 -1.2,-1.2 v -12 c 0,-0.6 0.5,-1.2 1.2,-1.2 h 46.9 c 0.6,0 1.2,0.5 1.2,1.2 v 12 c 0,0.7 -0.5,1.2 -1.1,1.2 z"
     fill="url(#SVGID_1_)"
     style="fill:url(#SVGID_1_)" /><text
     id="text940"
     y="139.15556"
     x="123.82953"
     style="font-size:38.6667px;line-height:1.25;font-family:Exo;-inkscape-font-specification:Exo;letter-spacing:5px;word-spacing:0px"
     xml:space="preserve"><tspan
       y="139.15556"
       x="123.82953"
       id="tspan938"
       sodipodi:role="line" /></text></svg>
