<?xml version="1.0" encoding="UTF-8" standalone="no"?>
<svg
   xmlns:dc="http://purl.org/dc/elements/1.1/"
   xmlns:cc="http://creativecommons.org/ns#"
   xmlns:rdf="http://www.w3.org/1999/02/22-rdf-syntax-ns#"
   xmlns:svg="http://www.w3.org/2000/svg"
   xmlns="http://www.w3.org/2000/svg"
   xmlns:xlink="http://www.w3.org/1999/xlink"
   xmlns:sodipodi="http://sodipodi.sourceforge.net/DTD/sodipodi-0.dtd"
   xmlns:inkscape="http://www.inkscape.org/namespaces/inkscape"
   inkscape:export-ydpi="160.18324"
   inkscape:export-xdpi="160.18324"
   inkscape:export-filename="\\home.ansatt.ntnu.no\kjetikl\Documents\My Pictures\usegalaxy_no\branding\galaxy-small.inv\galaxy-small-inv.128.png"
   sodipodi:docname="galaxy-small.inv.svg"
   inkscape:version="1.0 (4035a4fb49, 2020-05-01)"
   xml:space="preserve"
   enable-background="new 7.7 3 347 110.6"
   viewBox="7.7 3 76.430122 79.109399"
   y="0px"
   x="0px"
   id="Layer_1"
   version="1.1"
   width="76.430122"
   height="79.109398"><metadata
     id="metadata4902"><rdf:RDF><cc:Work
         rdf:about=""><dc:format>image/svg+xml</dc:format><dc:type
           rdf:resource="http://purl.org/dc/dcmitype/StillImage" /><dc:title></dc:title></cc:Work></rdf:RDF></metadata><defs
     id="defs4900"><linearGradient
       id="linearGradient2083"
       inkscape:collect="always"><stop
         id="stop2079"
         offset="0"
         style="stop-color:#d0bd2b;stop-opacity:1;" /><stop
         id="stop2081"
         offset="1"
         style="stop-color:#d0bd2b;stop-opacity:0;" /></linearGradient><linearGradient
       gradientUnits="userSpaceOnUse"
       y2="49.739102"
       x2="75.558985"
       y1="49.739102"
       x1="26.258985"
       id="linearGradient2085"
       xlink:href="#linearGradient2083"
       inkscape:collect="always" /></defs><sodipodi:namedview
     inkscape:document-rotation="0"
     inkscape:current-layer="Layer_1"
     inkscape:window-maximized="1"
     inkscape:window-y="-8"
     inkscape:window-x="-8"
     inkscape:cy="49.40102"
     inkscape:cx="78.372629"
     inkscape:zoom="7.0914455"
     showgrid="false"
     id="namedview4898"
     inkscape:window-height="1017"
     inkscape:window-width="1920"
     inkscape:pageshadow="2"
     inkscape:pageopacity="0"
     guidetolerance="10"
     gridtolerance="10"
     objecttolerance="10"
     borderopacity="1"
     bordercolor="#666666"
     pagecolor="#ffffff" /><path
     style="fill:#ffffff;fill-opacity:1;stroke:none"
     id="path4857"
     d="m 57.558985,19.439102 h -47 c -0.6000003,0 -1.1000003,-0.5 -1.1000003,-1.1 V 6.1391016 c 0,-0.6 0.5,-1.1 1.1000003,-1.1 h 47 c 0.6,0 1.1,0.5 1.1,1.1 V 18.239102 c 0,0.6 -0.4,1.2 -1.1,1.2 z"
     fill="#58595B" /><path
     style="fill:#ffffff;fill-opacity:1;stroke:none"
     id="path4859"
     d="m 44.958985,38.339102 h -34.3 c -0.6,0 -1.2000003,-0.5 -1.2000003,-1.2 v -12 c 0,-0.6 0.5,-1.2 1.2000003,-1.2 h 34.3 c 0.6,0 1.2,0.5 1.2,1.2 v 12 c 0,0.7 -0.5,1.2 -1.2,1.2 z"
     fill="#58595B" /><linearGradient
     gradientTransform="matrix(0.431,0,0,-0.431,0,179.9715)"
     y2="282.5"
     x2="175.7"
     y1="282.5"
     x1="61.400002"
     gradientUnits="userSpaceOnUse"
     id="SVGID_1_"><stop
       id="stop4862"
       style="stop-color:#D0BD2B"
       offset="0.1656" /><stop
       id="stop4864"
       style="stop-color:#D0BD2B;stop-opacity:0"
       offset="1" /></linearGradient><path
     id="path4866"
     d="m 74.458985,56.939102 h -47 c -0.6,0 -1.2,-0.5 -1.2,-1.2 v -12 c 0,-0.6 0.5,-1.2 1.2,-1.2 h 46.9 c 0.6,0 1.2,0.5 1.2,1.2 v 12 c 0,0.7 -0.5,1.2 -1.1,1.2 z"
     fill="url(#SVGID_1_)"
     style="fill:url(#linearGradient2085);fill-opacity:1" /><g
     style="fill:#ffffff;fill-opacity:1;stroke-width:3.65679;stroke:none"
     id="g4884"
     transform="matrix(0.27346344,0,0,0.27346344,-14.491967,59.085634)"><path
       style="fill:#ffffff;fill-opacity:1;stroke-width:3.65679;stroke:none"
       id="path4886"
       d="m 139.2,58.2 c -2.5,0.9 -5.7,1.9 -9.7,2.8 -4.1,0.9 -8.1,1.4 -12.1,1.4 -9.3,0 -16.6,-2.5 -21.9,-7.6 -5.3,-5.1 -7.9,-12.1 -7.9,-21 0,-8.5 2.7,-15.4 8,-20.6 5.3,-5.2 12.8,-7.8 22.3,-7.8 3.6,0 7,0.3 10.3,1 3.3,0.6 6.9,1.9 10.9,3.9 v 12.8 h -1.6 c -0.7,-0.5 -1.7,-1.2 -3,-2.2 -1.3,-1 -2.6,-1.8 -3.8,-2.4 -1.4,-0.8 -3.1,-1.5 -5,-2 -1.9,-0.6 -3.9,-0.9 -6.1,-0.9 -2.5,0 -4.8,0.4 -6.8,1.1 -2,0.7 -3.9,1.9 -5.5,3.4 -1.6,1.5 -2.8,3.4 -3.7,5.6 -0.9,2.3 -1.3,4.9 -1.3,7.8 0,6.1 1.6,10.7 4.8,13.9 3.2,3.2 8,4.8 14.3,4.8 0.6,0 1.1,0 1.8,0 0.6,0 1.2,0 1.8,-0.1 V 41.4 H 114.1 V 31.1 h 25.3 z"
       fill="#58595B" /><path
       style="fill:#ffffff;fill-opacity:1;stroke-width:3.65679;stroke:none"
       id="path4888"
       d="m 172.7,57 c -0.7,0.6 -1.6,1.2 -2.7,1.9 -1,0.8 -2.1,1.4 -3,1.8 -1.3,0.6 -2.7,1 -4.1,1.3 -1.4,0.3 -2.9,0.4 -4.6,0.4 -3.9,0 -7.2,-1.2 -9.9,-3.7 -2.7,-2.4 -4,-5.5 -4,-9.3 0,-3 0.7,-5.5 2,-7.4 1.3,-1.9 3.3,-3.4 5.7,-4.5 2.4,-1.1 5.5,-1.9 9.1,-2.4 3.6,-0.5 7.4,-0.8 11.3,-1 v -0.2 c 0,-2.3 -0.9,-3.9 -2.8,-4.7 -1.9,-0.9 -4.6,-1.3 -8.2,-1.3 -2.2,0 -4.5,0.4 -7,1.2 -2.5,0.8 -4.3,1.4 -5.3,1.8 H 148 v -10 c 1.4,-0.4 3.7,-0.8 6.9,-1.3 3.1,-0.5 6.3,-0.8 9.5,-0.8 7.5,0 13,1.2 16.3,3.5 3.3,2.3 5,5.9 5,10.9 v 28.1 h -13.1 z m 0,-6.5 V 42 c -1.8,0.1 -3.7,0.3 -5.8,0.6 -2.1,0.3 -3.7,0.6 -4.7,0.9 -1.3,0.4 -2.3,1 -3,1.8 -0.7,0.8 -1,1.9 -1,3.1 0,0.9 0.1,1.6 0.2,2.1 0.1,0.6 0.5,1 1.1,1.6 0.6,0.5 1.2,0.9 2,1.1 0.8,0.2 2,0.3 3.7,0.3 1.3,0 2.7,-0.3 4.1,-0.8 1.2,-0.6 2.4,-1.3 3.4,-2.2 z"
       fill="#58595B" /><path
       style="fill:#ffffff;fill-opacity:1;stroke-width:3.65679;stroke:none"
       id="path4890"
       d="M 208,61.3 H 194.7 V 4 H 208 Z"
       fill="#58595B" /><path
       style="fill:#ffffff;fill-opacity:1;stroke-width:3.65679;stroke:none"
       id="path4892"
       d="m 242.1,57 c -0.7,0.6 -1.6,1.2 -2.7,1.9 -1,0.8 -2.1,1.4 -3,1.8 -1.3,0.6 -2.7,1 -4.1,1.3 -1.4,0.3 -2.9,0.4 -4.6,0.4 -3.9,0 -7.2,-1.2 -9.9,-3.7 -2.7,-2.4 -4,-5.5 -4,-9.3 0,-3 0.7,-5.5 2,-7.4 1.3,-1.9 3.3,-3.4 5.7,-4.5 2.5,-1.1 5.5,-1.9 9.1,-2.4 3.6,-0.5 7.4,-0.8 11.3,-1 v -0.2 c 0,-2.3 -0.9,-3.9 -2.8,-4.7 -1.9,-0.9 -4.6,-1.3 -8.2,-1.3 -2.2,0 -4.5,0.4 -7,1.2 -2.5,0.8 -4.3,1.4 -5.3,1.8 h -1.2 v -10 c 1.4,-0.4 3.7,-0.8 6.9,-1.3 3.1,-0.5 6.3,-0.8 9.5,-0.8 7.5,0 13,1.2 16.3,3.5 3.4,2.3 5,5.9 5,10.9 V 61.3 H 242 Z m 0,-6.5 V 42 c -1.8,0.1 -3.7,0.3 -5.8,0.6 -2.1,0.3 -3.7,0.6 -4.7,0.9 -1.3,0.4 -2.3,1 -3,1.8 -0.7,0.8 -1,1.9 -1,3.1 0,0.9 0.1,1.6 0.2,2.1 0.1,0.6 0.5,1 1.1,1.6 0.6,0.5 1.2,0.9 2,1.1 0.8,0.2 2,0.3 3.7,0.3 1.3,0 2.7,-0.3 4.1,-0.8 1.2,-0.6 2.4,-1.3 3.4,-2.2 z"
       fill="#58595B" /><path
       style="fill:#ffffff;fill-opacity:1;stroke-width:3.65679;stroke:none"
       id="path4894"
       d="M 307.3,61.3 H 291.8 L 283,49 273.9,61.4 H 258.7 L 275,40.7 259,20 h 15.5 l 8.7,12.2 8.7,-12.2 h 15.2 L 291,40.4 Z"
       fill="#58595B" /><path
       style="fill:#ffffff;fill-opacity:1;stroke-width:3.65679;stroke:none"
       id="path4896"
       d="M 329.8,46.7 339.2,20 h 13.6 l -23,56.5 H 315.4 L 322,61 306,20 h 13.9 z"
       fill="#58595B" /></g><text
     id="text940"
     y="141.19467"
     x="125.58852"
     style="font-size:38.6667px;line-height:1.25;font-family:Exo;-inkscape-font-specification:Exo;letter-spacing:5px;word-spacing:0px"
     xml:space="preserve"><tspan
       y="141.19467"
       x="125.58852"
       id="tspan938"
       sodipodi:role="line" /></text></svg>
