<?xml version="1.0" encoding="UTF-8" standalone="no"?>
<svg
   xmlns:dc="http://purl.org/dc/elements/1.1/"
   xmlns:cc="http://creativecommons.org/ns#"
   xmlns:rdf="http://www.w3.org/1999/02/22-rdf-syntax-ns#"
   xmlns:svg="http://www.w3.org/2000/svg"
   xmlns="http://www.w3.org/2000/svg"
   xmlns:xlink="http://www.w3.org/1999/xlink"
   xmlns:sodipodi="http://sodipodi.sourceforge.net/DTD/sodipodi-0.dtd"
   xmlns:inkscape="http://www.inkscape.org/namespaces/inkscape"
   height="51.900002"
   width="66.099998"
   version="1.1"
   id="Layer_1"
   x="0px"
   y="0px"
   viewBox="7.7 3 66.099998 51.900002"
   enable-background="new 7.7 3 347 110.6"
   xml:space="preserve"
   inkscape:version="1.0 (4035a4fb49, 2020-05-01)"
   sodipodi:docname="galaxy-logo.flag.svg"
   inkscape:export-filename="\\home.ansatt.ntnu.no\kjetikl\Documents\My Pictures\usegalaxy_no\branding\galaxy-small\galaxy-small.png"
   inkscape:export-xdpi="2572.6528"
   inkscape:export-ydpi="2572.6528"><metadata
     id="metadata4902"><rdf:RDF><cc:Work
         rdf:about=""><dc:format>image/svg+xml</dc:format><dc:type
           rdf:resource="http://purl.org/dc/dcmitype/StillImage" /><dc:title></dc:title></cc:Work></rdf:RDF></metadata><defs
     id="defs4900"><linearGradient
       id="linearGradient2679"
       inkscape:collect="always"><stop
         id="stop2675"
         offset="0"
         style="stop-color:#ef2729;stop-opacity:1;" /><stop
         id="stop2677"
         offset="1"
         style="stop-color:#ef2729;stop-opacity:0;" /></linearGradient><linearGradient
       gradientUnits="userSpaceOnUse"
       y2="47.7"
       x2="73.8"
       y1="47.7"
       x1="24.5"
       id="linearGradient2681"
       xlink:href="#linearGradient2679"
       inkscape:collect="always" /></defs><sodipodi:namedview
     pagecolor="#ffffff"
     bordercolor="#666666"
     borderopacity="1"
     objecttolerance="10"
     gridtolerance="10"
     guidetolerance="10"
     inkscape:pageopacity="0"
     inkscape:pageshadow="2"
     inkscape:window-width="1920"
     inkscape:window-height="1017"
     id="namedview4898"
     showgrid="false"
     inkscape:zoom="7.0914455"
     inkscape:cx="78.201312"
     inkscape:cy="49.738683"
     inkscape:window-x="-8"
     inkscape:window-y="-8"
     inkscape:window-maximized="1"
     inkscape:current-layer="Layer_1"
     inkscape:document-rotation="0" /><path
     fill="#58595B"
     d="M 55.8,17.4 H 8.8000003 C 8.2,17.4 7.7,16.9 7.7,16.3 V 4.1 C 7.7,3.5 8.2,3 8.8000003,3 H 55.8 c 0.6,0 1.1,0.5 1.1,1.1 v 12.1 c 0,0.6 -0.4,1.2 -1.1,1.2 z"
     id="path4857"
     style="fill:#ef2729;fill-opacity:1" /><path
     fill="#58595B"
     d="M 43.2,36.3 H 8.9000003 C 8.3000003,36.3 7.7,35.8 7.7,35.1 v -12 c 0,-0.6 0.5,-1.2 1.2000003,-1.2 H 43.2 c 0.6,0 1.2,0.5 1.2,1.2 v 12 c 0,0.7 -0.5,1.2 -1.2,1.2 z"
     id="path4859"
     style="fill:#002368;fill-opacity:1" /><linearGradient
     id="SVGID_1_"
     gradientUnits="userSpaceOnUse"
     x1="61.400002"
     y1="282.5"
     x2="175.7"
     y2="282.5"
     gradientTransform="matrix(0.431,0,0,-0.431,0,179.9715)"><stop
       offset="0.1656"
       style="stop-color:#D0BD2B"
       id="stop4862" /><stop
       offset="1"
       style="stop-color:#D0BD2B;stop-opacity:0"
       id="stop4864" /></linearGradient><path
     style="fill:url(#linearGradient2681);fill-opacity:1"
     fill="url(#SVGID_1_)"
     d="m 72.7,54.9 h -47 c -0.6,0 -1.2,-0.5 -1.2,-1.2 v -12 c 0,-0.6 0.5,-1.2 1.2,-1.2 h 46.9 c 0.6,0 1.2,0.5 1.2,1.2 v 12 c 0,0.7 -0.5,1.2 -1.1,1.2 z"
     id="path4866" /><text
     xml:space="preserve"
     style="font-size:38.6667px;line-height:1.25;font-family:Exo;-inkscape-font-specification:Exo;letter-spacing:5px;word-spacing:0px"
     x="123.82953"
     y="139.15556"
     id="text940"><tspan
       sodipodi:role="line"
       id="tspan938"
       x="123.82953"
       y="139.15556" /></text></svg>
